# xmcd
#
# Track frame offsets:
#	150
#	25506
#	40400
#	63015
#	80178
#	104095
#
# Disc length: 1651 seconds
#
# Revision: 0
# Processed by: cddbd v1.5.1PL0 Copyright (c) Steve Scherf et al.
# Submitted via: dBpowerAMP V4.0
#
DISCID=48067106
DTITLE=Various Artist - Malt Mix, Genius Entertainment
DYEAR=2004
DGENRE=Blues
TTITLE0=Why I Sing The Blues - George Farber
TTITLE1=Regular Man - Albert Cummings
TTITLE2=In The Blues - Shane Henry
TTITLE3=Shakin' The Hard Times Loose - Tommy Castro
TTITLE4=Barrel House Blues - Albert Cummings
TTITLE5=Pillow - Renee Austin
EXTD=
EXTT0=
EXTT1=
EXTT2=
EXTT3=
EXTT4=
EXTT5=
PLAYORDER=
